<?xml version="1.0" standalone="no"?>
<!DOCTYPE svg PUBLIC "-//W3C//DTD SVG 20010904//EN"
 "http://www.w3.org/TR/2001/REC-SVG-20010904/DTD/svg10.dtd">
<svg version="1.0" xmlns="http://www.w3.org/2000/svg"
 width="800.000000pt" height="553.000000pt" viewBox="0 0 800.000000 553.000000"
 preserveAspectRatio="xMidYMid meet">
<metadata>
Created by potrace 1.15, written by Peter Selinger 2001-2017
</metadata>
<g transform="translate(0.000000,553.000000) scale(0.100000,-0.100000)"
fill="#000000" stroke="none">
<path d="M1674 3610 c-36 -14 -65 -81 -58 -129 4 -26 3 -27 -29 -23 -28 3 -40
-2 -61 -24 -40 -43 -56 -86 -56 -147 0 -49 -2 -55 -24 -61 -17 -4 -25 -15 -29
-38 -3 -18 -9 -52 -12 -75 -6 -34 -5 -43 7 -43 11 0 13 -15 10 -72 -2 -40 -7
-84 -12 -98 -6 -14 -7 -41 -4 -60 3 -19 5 -44 5 -55 -1 -11 -2 -45 -2 -75 0
-44 -6 -66 -32 -110 -40 -67 -70 -152 -72 -205 -1 -22 -7 -67 -15 -101 -18
-82 -12 -94 47 -94 l48 0 0 68 c0 59 4 74 29 110 15 22 36 73 47 112 10 41 31
87 47 108 16 20 35 55 42 77 7 22 22 58 32 79 17 33 22 37 30 23 5 -9 15 -17
23 -17 8 0 31 -25 51 -55 21 -32 44 -55 54 -55 32 0 43 -24 30 -67 -9 -30 -9
-52 1 -98 18 -92 22 -148 10 -189 -13 -50 -5 -67 33 -66 17 0 64 -2 104 -6 71
-7 72 -7 72 18 0 18 -8 27 -32 36 -43 15 -78 68 -78 115 0 20 5 37 10 37 6 0
10 19 9 43 0 23 0 76 1 117 1 67 -3 85 -35 160 -21 47 -53 106 -71 133 -31 43
-47 96 -25 83 5 -3 18 2 30 12 17 14 21 30 23 91 2 52 -1 76 -9 78 -12 4 -19
33 -9 33 2 0 23 -9 47 -20 51 -23 97 -25 122 -6 20 16 57 108 57 146 1 62 49
81 220 85 123 3 120 3 120 18 0 10 -16 12 -61 9 -44 -3 -65 0 -77 11 -14 12
-49 15 -170 16 -84 0 -157 3 -163 7 -9 5 -35 2 -81 -12 -23 -7 -25 31 -3 40
20 7 20 70 -1 101 -25 38 -92 55 -140 35z"/>
<path d="M6650 3065 c0 -20 -6 -37 -12 -39 -7 -2 -32 -9 -55 -15 -85 -23 -173
-117 -188 -203 -7 -34 -9 -36 -51 -40 -40 -3 -44 -1 -44 20 l0 22 -182 -6
c-101 -4 -185 -8 -186 -10 -2 -1 -1 -12 3 -24 9 -30 58 -48 148 -55 l77 -7 0
-34 0 -34 -140 0 -140 0 0 120 0 120 215 0 c118 0 215 2 215 5 0 20 -33 63
-55 73 -35 16 -434 17 -468 1 -43 -19 -48 -43 -45 -213 l3 -160 35 -20 c33
-20 49 -21 235 -19 110 2 212 5 227 9 17 3 36 19 49 41 18 29 21 45 17 96 -3
34 -3 54 -1 45 3 -13 15 -18 44 -18 34 0 39 -3 39 -22 0 -39 45 -121 84 -156
46 -40 108 -72 140 -72 25 0 36 -16 36 -56 0 -17 6 -24 19 -24 16 0 20 8 23
37 3 33 7 38 35 44 44 9 115 52 150 93 26 28 51 82 69 144 2 7 20 12 42 12 36
0 39 2 34 25 -4 22 -10 25 -43 25 -34 0 -39 3 -39 23 -1 33 -33 98 -71 142
-35 40 -118 85 -156 85 -20 0 -23 5 -23 40 0 33 -3 40 -20 40 -16 0 -20 -7
-20 -35z m-10 -130 c0 -27 -5 -34 -25 -39 -37 -9 -93 -63 -100 -96 -6 -26 -11
-30 -41 -30 -41 0 -45 20 -15 78 24 46 63 83 116 110 49 25 65 19 65 -23z
m113 24 c73 -37 117 -88 138 -161 7 -27 7 -28 -31 -28 -32 0 -39 4 -44 24 -9
35 -55 87 -92 102 -34 14 -53 62 -31 76 16 10 12 11 60 -13z m-243 -257 c0
-29 45 -82 88 -103 37 -18 42 -25 42 -54 0 -32 -1 -33 -28 -26 -90 26 -172
113 -172 183 0 21 4 24 35 20 23 -3 35 -9 35 -20z m381 -10 c-26 -89 -102
-162 -181 -173 -23 -4 -25 -1 -25 30 0 30 4 36 30 43 40 10 95 64 102 100 5
25 10 28 44 28 37 0 37 -1 30 -28z"/>
<path d="M2176 2965 c-21 -7 -43 -20 -47 -27 -5 -7 -10 -83 -11 -168 -1 -85
-2 -171 -2 -190 -1 -19 2 -34 7 -32 4 1 25 2 46 2 27 0 48 7 66 23 28 24 33
39 34 106 l1 44 80 -7 80 -6 0 50 0 50 -86 0 c-85 0 -86 0 -80 23 3 12 6 28 6
35 0 9 36 12 145 12 167 0 206 10 223 58 6 17 8 33 5 36 -4 3 -101 6 -217 6
-154 -1 -222 -5 -250 -15z"/>
<path d="M2740 2863 c-46 -17 -50 -30 -50 -175 l0 -138 34 0 c43 0 76 38 76
86 l0 34 104 0 105 0 5 -42 c4 -24 5 -52 4 -63 -2 -11 3 -20 10 -19 6 1 30 2
52 3 l40 1 0 153 0 154 -107 6 c-124 8 -252 8 -273 0z"/>
<path d="M3203 2862 l-33 -3 0 -155 0 -154 55 0 55 0 0 86 0 85 81 -73 c93
-85 113 -97 155 -98 27 0 32 4 38 31 3 17 6 89 6 158 l0 127 -37 -4 c-57 -6
-63 -16 -63 -93 0 -38 -3 -69 -6 -69 -3 0 -41 33 -85 73 -86 78 -117 94 -166
89z"/>
<path d="M3633 2855 c-13 -9 -23 -25 -23 -36 0 -17 7 -19 80 -19 l80 0 0 -125
0 -125 43 0 c24 0 48 5 55 12 8 8 12 50 12 124 l0 111 71 5 c74 6 85 11 91 43
3 19 -3 20 -192 23 -164 2 -199 0 -217 -13z"/>
<path d="M4122 2854 c-21 -14 -22 -22 -22 -160 l0 -144 28 0 c44 0 69 24 76
75 l7 45 100 0 c54 0 99 -3 99 -7 4 -68 9 -105 13 -110 4 -3 27 -2 52 1 l45 7
0 155 0 154 -188 0 c-154 0 -192 -3 -210 -16z"/>
<path d="M4623 2860 c-37 -15 -52 -49 -46 -102 9 -77 21 -82 189 -86 l144 -4
0 -29 0 -29 -165 0 c-95 0 -165 -4 -165 -9 0 -5 14 -20 32 -32 29 -21 41 -23
191 -23 185 0 189 3 202 95 6 44 4 54 -14 73 -19 19 -36 22 -159 26 -136 5
-137 5 -137 28 l0 24 153 -1 c135 -2 153 0 159 15 4 12 -3 25 -21 41 -26 22
-33 23 -184 22 -86 0 -167 -4 -179 -9z"/>
<path d="M5067 2863 c-4 -3 -7 -43 -7 -88 0 -78 1 -82 26 -93 17 -8 61 -10
138 -6 140 8 165 3 159 -30 -5 -23 -9 -25 -104 -32 -97 -6 -110 -11 -122 -47
-7 -17 2 -18 149 -15 197 4 187 -5 182 171 -3 70 -7 130 -11 133 -3 3 -23 8
-45 11 l-40 5 -7 -66 -7 -66 -92 1 c-50 0 -98 3 -106 7 -9 4 -16 23 -18 47 -2
26 -10 46 -23 58 -21 17 -60 23 -72 10z"/>
</g>
</svg>
