<?xml version="1.0" standalone="no"?>
<!DOCTYPE svg PUBLIC "-//W3C//DTD SVG 20010904//EN"
 "http://www.w3.org/TR/2001/REC-SVG-20010904/DTD/svg10.dtd">
<svg version="1.0" xmlns="http://www.w3.org/2000/svg"
 width="2668.000000pt" height="668.000000pt" viewBox="0 0 2668.000000 668.000000"
 preserveAspectRatio="xMidYMid meet">
<metadata>
Created by potrace 1.15, written by Peter Selinger 2001-2017
</metadata>
<g transform="translate(0.000000,668.000000) scale(0.100000,-0.100000)"
fill="#000000" stroke="none">
<path d="M1938 6661 c-203 -66 -334 -255 -354 -510 -4 -63 -1 -90 19 -158 23
-77 23 -83 7 -98 -23 -21 -33 -19 -60 10 -20 22 -32 25 -89 25 -133 -1 -233
-43 -327 -136 -105 -104 -179 -254 -220 -444 -18 -80 -22 -277 -12 -460 3 -44
3 -44 -37 -56 -22 -7 -72 -13 -111 -13 -114 -1 -115 -3 -126 -207 -5 -93 -18
-215 -29 -272 -10 -57 -19 -129 -19 -161 l0 -58 43 -12 c23 -7 74 -18 112 -25
l70 -13 -40 -11 c-22 -6 -57 -25 -77 -42 l-38 -31 0 -109 c0 -59 7 -143 15
-186 11 -61 35 -304 35 -356 0 -4 -13 -8 -30 -8 -36 0 -53 -23 -76 -108 l-17
-62 24 -26 c23 -25 23 -26 6 -55 -21 -37 -22 -59 -3 -84 9 -12 12 -33 8 -57
-4 -31 0 -44 18 -63 l22 -23 -31 -184 c-47 -284 -54 -352 -47 -474 7 -110 6
-110 -24 -165 -17 -30 -40 -74 -52 -99 -12 -25 -38 -67 -59 -95 -21 -27 -67
-107 -104 -177 -61 -117 -67 -134 -76 -219 -10 -84 -16 -103 -75 -218 -62
-119 -66 -131 -71 -211 -5 -81 -4 -87 20 -116 l26 -31 -70 -274 c-39 -151 -75
-292 -81 -314 -11 -44 -4 -189 11 -228 8 -21 20 -27 81 -37 69 -12 262 -9 357
6 48 7 53 15 54 90 1 33 -6 64 -20 92 -19 37 -21 58 -21 191 0 140 2 155 29
233 56 157 74 190 111 202 45 14 70 54 108 168 17 51 56 145 86 208 84 176 99
229 91 320 -6 70 -5 79 24 140 17 36 31 70 31 77 0 6 19 24 43 40 32 22 51 47
79 103 29 58 46 79 74 93 39 20 60 58 69 129 13 91 30 148 91 307 53 136 72
172 111 215 46 51 93 136 93 168 0 37 17 24 49 -37 49 -96 67 -111 140 -120
l61 -7 172 -255 c116 -172 180 -258 197 -266 15 -5 59 -11 100 -11 l74 -1 29
-47 29 -47 -11 -105 c-9 -88 -15 -110 -34 -131 -33 -36 -36 -61 -25 -220 12
-176 33 -327 53 -384 9 -24 16 -62 16 -85 0 -45 7 -59 31 -68 13 -5 17 -41 27
-204 l11 -199 -24 -50 c-24 -52 -60 -200 -70 -295 -8 -80 2 -85 185 -85 131
-1 154 -4 240 -30 91 -28 103 -29 300 -29 113 -1 221 2 241 7 35 7 37 10 43
57 5 35 2 58 -8 77 -16 32 -110 82 -198 107 -61 18 -109 62 -229 213 -69 86
-74 111 -71 323 3 126 5 149 23 172 31 44 41 155 22 257 -15 81 -15 92 6 230
12 80 28 240 36 354 15 206 15 209 -6 255 -11 26 -23 74 -27 107 -6 55 -9 60
-32 60 -22 0 -30 14 -90 170 -158 408 -271 613 -439 797 -55 59 -59 68 -79
156 l-22 93 20 40 c11 21 24 39 28 39 4 0 34 -9 66 -20 71 -26 77 -22 132 83
l38 72 17 225 c24 297 24 358 0 412 -22 50 -43 71 -94 93 -42 17 -43 21 -22
72 8 19 15 51 15 69 0 19 2 34 5 34 3 0 40 -20 83 -44 216 -122 367 -186 441
-186 31 0 53 -5 61 -15 28 -34 127 -1 196 66 22 22 56 48 75 58 62 33 89 85
123 242 l31 143 58 14 c47 12 57 18 52 31 -21 54 -55 226 -55 278 0 53 3 64
21 74 39 20 129 118 129 139 0 11 8 23 18 26 9 3 30 12 45 20 23 11 84 14 313
14 l284 0 0 34 0 34 84 -5 c56 -4 85 -2 90 6 9 14 406 16 406 2 0 -15 41 -24
53 -12 6 6 50 11 103 11 88 0 93 1 96 23 2 12 2 32 0 45 -4 21 -9 22 -96 22
-50 0 -100 3 -112 6 -12 3 -28 -1 -37 -10 -14 -14 -43 -16 -214 -14 l-198 3
-3 24 c-2 13 1 27 7 31 7 3 9 14 5 24 -5 14 -14 16 -40 11 -27 -5 -34 -3 -34
10 0 8 -4 15 -10 15 -6 0 -10 43 -10 110 l0 110 -25 0 -25 0 0 -130 0 -130
-25 0 c-21 0 -25 5 -25 30 l0 30 -702 2 -703 3 -3 23 c-2 14 -10 22 -23 22
-33 0 -59 19 -59 44 0 43 -12 86 -25 86 -7 0 -15 -20 -19 -47 -17 -131 -13
-123 -67 -123 -26 0 -50 -4 -53 -9 -6 -10 -62 -20 -158 -30 -68 -6 -77 -4 -58
15 6 6 5 27 -3 59 -15 63 -11 115 9 115 24 0 118 46 134 65 10 12 16 50 18
116 4 88 1 109 -24 187 -15 48 -27 102 -25 119 2 31 -1 34 -66 66 -37 19 -93
50 -123 71 -89 59 -152 79 -260 83 -72 2 -109 -2 -152 -16z m1199 -1438 c-24
-32 -56 -75 -72 -97 l-28 -38 -32 61 c-19 34 -38 68 -45 76 -8 10 -8 19 2 34
12 19 22 21 115 21 l103 0 -43 -57z"/>
<path d="M4320 3620 c-173 -21 -293 -104 -347 -240 -17 -42 -18 -105 -21 -899
l-3 -854 138 7 c154 7 202 15 286 46 74 28 134 73 174 134 58 86 66 127 71
379 l4 227 404 0 404 0 0 210 0 210 -405 0 -405 0 0 185 0 185 628 0 c351 0
667 5 717 10 207 23 343 90 397 194 19 38 47 151 48 194 l0 22 -1012 -1 c-557
-1 -1042 -5 -1078 -9z"/>
<path d="M21390 3615 c-77 -15 -188 -56 -239 -87 -60 -37 -142 -120 -170 -173
l-26 -50 0 -675 0 -675 28 -54 c58 -109 180 -196 342 -243 l80 -23 890 0 c834
0 894 1 960 19 166 43 291 131 345 241 l25 50 3 448 3 447 -877 0 -877 0 6
-59 c13 -148 135 -261 352 -327 88 -27 96 -28 413 -32 l322 -4 0 -189 0 -189
-675 0 -675 0 0 585 0 585 1006 0 1007 0 -6 53 c-21 176 -125 279 -342 339
-80 22 -83 23 -955 25 -695 1 -888 -1 -940 -12z"/>
<path d="M24328 3620 c-198 -34 -353 -131 -415 -259 l-28 -56 0 -675 c0 -668
0 -675 21 -721 63 -135 229 -237 439 -269 47 -7 354 -10 930 -7 786 3 866 5
930 21 160 41 283 126 336 232 l24 49 0 690 0 690 -24 52 c-46 102 -170 191
-330 236 -75 21 -88 22 -956 23 -484 1 -901 -2 -927 -6z m1572 -799 l0 -389
-37 -32 c-20 -18 -64 -45 -97 -61 -34 -16 -55 -29 -48 -29 7 0 34 11 60 24 26
13 52 21 59 19 6 -2 23 3 37 13 l26 16 0 -171 0 -171 -675 0 -675 0 0 585 0
585 675 0 675 0 0 -389z"/>
<path d="M6948 3125 c-94 -19 -191 -69 -239 -123 -70 -80 -69 -71 -69 -759 l0
-613 49 0 c73 0 195 26 258 55 78 35 125 76 158 137 29 52 30 56 33 226 l4
172 509 0 509 0 0 -295 0 -295 255 0 255 0 0 755 0 755 -827 -1 c-650 -1 -843
-4 -895 -14z m1212 -445 l0 -140 -510 0 -510 0 0 140 0 140 510 0 510 0 0
-140z"/>
<path d="M11170 3126 c-76 -18 -102 -30 -144 -66 -42 -37 -66 -105 -66 -187
l0 -53 385 0 385 0 0 -595 0 -595 118 0 c136 0 240 20 293 54 24 16 47 45 66
83 l28 58 3 497 3 496 267 4 c294 5 332 12 408 68 55 40 77 88 82 178 l4 72
-888 -1 c-677 0 -902 -4 -944 -13z"/>
<path d="M13548 3125 c-94 -19 -191 -69 -239 -123 -70 -80 -69 -71 -69 -759
l0 -613 49 0 c73 0 195 26 258 55 78 35 125 76 158 137 29 52 30 56 33 226 l4
172 509 0 509 0 0 -295 0 -295 255 0 255 0 0 755 0 755 -827 -1 c-650 -1 -843
-4 -895 -14z m1212 -445 l0 -140 -510 0 -510 0 0 140 0 140 510 0 510 0 0
-140z"/>
<path d="M15822 3125 c-134 -30 -231 -95 -280 -189 -26 -49 -27 -58 -30 -243
-3 -160 -1 -201 13 -243 22 -66 88 -133 169 -171 121 -57 147 -59 774 -59
l572 0 0 -140 0 -140 -765 0 c-855 0 -777 7 -753 -72 25 -84 132 -169 268
-214 50 -17 109 -19 698 -22 712 -3 755 -1 879 58 84 39 137 94 158 162 18 61
21 399 5 460 -19 66 -69 119 -150 161 -125 63 -160 66 -792 67 l-558 0 0 140
0 140 755 0 755 0 0 23 c0 88 -65 189 -150 232 -118 60 -105 59 -835 61 -542
2 -682 0 -733 -11z"/>
<path d="M8910 2385 l0 -745 250 0 250 0 2 420 3 420 270 -252 c524 -487 514
-478 589 -514 104 -49 176 -65 324 -71 l132 -6 0 748 0 748 -97 -6 c-198 -13
-322 -69 -376 -171 -21 -39 -22 -53 -25 -354 l-3 -313 -42 37 c-23 20 -196
181 -385 357 -188 176 -357 330 -375 342 -93 63 -260 105 -418 105 l-99 0 0
-745z"/>
<path d="M17780 2774 c0 -232 4 -373 11 -399 7 -23 28 -57 53 -81 75 -75 61
-74 803 -74 l653 0 0 -140 0 -140 -372 0 c-294 0 -386 -3 -436 -15 -159 -38
-242 -125 -242 -254 l0 -42 618 3 c543 4 624 6 675 21 113 33 191 87 230 161
22 41 22 44 25 679 l3 637 -251 0 -250 0 0 -295 0 -295 -509 0 -510 0 -3 203
c-3 191 -4 204 -26 240 -54 86 -172 133 -359 144 l-113 6 0 -359z"/>
</g>
</svg>
